<svg width="111" height="111" viewBox="0 0 111 111" fill="none" xmlns="http://www.w3.org/2000/svg">
<rect y="23.2937" width="90" height="90" rx="20" transform="rotate(-15 0 23.2937)" fill="#FDC55E"/>
<path d="M48.8188 53.7529C49.014 54.6933 50.1387 55.1247 51.3253 54.7141L56.7064 52.8522C58.4895 52.2352 59.6973 50.5894 59.4041 49.176L59.2271 48.323L52.7697 50.5573C52.5746 49.6169 51.4499 49.1855 50.2633 49.5961C49.0767 50.0067 48.2697 51.1064 48.4648 52.0469L48.8188 53.7529Z" fill="white"/>
<path d="M37.856 52.8312L46.4629 49.8925L47.1649 53.2305L38.5579 56.1692L37.856 52.8312Z" fill="white"/>
<path d="M39.4937 58.9435L48.1007 56.0048L48.8026 59.3428L40.1956 62.2815L39.4937 58.9435Z" fill="white"/>
<path d="M54.548 62.7209C52.9655 63.2666 51.453 63.0518 50.4982 62.2999C49.7868 62.5451 38.8745 66.3076 39.0949 66.2316L39.4479 67.9267L41.7142 67.1453C40.5434 68.7038 39.9844 70.5035 40.3307 72.1664L40.5073 73.0142L55.6073 67.8078L54.548 62.7209Z" fill="white"/>
<path d="M50.6263 60.3901C50.8349 61.4189 52.0369 61.8907 53.305 61.4416L55.6054 60.6269L57.1186 68.0917L61.7194 66.4623L59.8277 57.1313C59.6192 56.1026 58.4172 55.6307 57.1491 56.0798C56.8935 56.1703 52.2994 57.7974 52.5483 57.7092C51.7066 58.0073 50.8873 58.0857 50.1428 58.0049L50.6263 60.3901Z" fill="white"/>
<path d="M49.6834 73.0021L42.3889 75.3849C43.3207 76.0816 44.8092 76.3321 46.3576 75.8263C47.906 75.3205 49.1622 74.1734 49.6834 73.0021Z" fill="white"/>
<path d="M67.5383 48.0301L66.8086 44.4335L64.5903 45.2185C63.3651 45.6521 62.5352 46.8087 62.7367 47.8019C62.9382 48.795 64.0947 49.2487 65.3199 48.8151L67.5383 48.0301Z" fill="white"/>
<path d="M69.5357 54.7782L69.4712 54.7356L68.0816 51.2855L66.6354 51.7986C65.8123 52.0907 65.011 52.1674 64.2829 52.0883L65.4957 58.0818C65.9038 60.0985 64.2179 62.4544 61.7366 63.3348L62.4765 66.9914L64.7261 66.1933C64.114 63.1687 66.6434 59.6342 70.3648 58.3138C72.0995 57.6983 73.8534 57.6649 75.2276 58.1174L75.1239 57.605C74.6705 55.3642 72.233 54.2397 69.5357 54.7782V54.7782Z" fill="white"/>
<path d="M71.6808 61.0896L72.98 64.303L70.8357 65.3345L69.5299 62.1044C68.0371 63.2132 67.1694 64.8926 67.4729 66.3881C67.8757 68.3734 70.2 69.3401 72.6494 68.4734C75.0988 67.6067 76.8197 65.2086 76.4168 63.2233C76.0418 61.3752 73.9355 60.5079 71.6808 61.0896V61.0896Z" fill="white"/>
<path d="M46.9072 45.4987C47.1052 46.4662 48.2542 46.9666 49.4586 46.5442C50.6631 46.1218 51.4669 44.9366 51.2688 43.9691L51.0895 43.0932L46.7278 44.6228L46.9072 45.4987Z" fill="white"/>
<path d="M51.9426 38.2888L49.4807 39.1299C49.0058 38.7666 48.2793 38.6451 47.4977 38.9122C46.3187 39.315 45.5202 40.3894 45.7141 41.3121L45.8896 42.1474L52.2937 39.9595L51.9426 38.2888Z" fill="white"/>
</svg>
